<svg width="130" height="28" viewBox="0 0 130 28" fill="none" xmlns="http://www.w3.org/2000/svg">
<path d="M102.504 6.39868C97.0582 6.39868 95.2538 9.14023 95.0141 11.117L94.0662 6.67068H90.8425V27.4962H96.1721V16.6808C96.1721 14.863 96.6623 13.4734 97.6506 12.5012C98.6336 11.529 100.021 11.0442 101.809 11.0442H103.266V6.40676H102.498L102.504 6.40138V6.39868Z" fill="white"/>
<path d="M0 0.382324V27.4935H5.18954V15.9483H15.127V11.5263L5.18954 11.5613V4.76934H15.636V0.382324H0Z" fill="white"/>
<path d="M42.2354 21.7547C41.8556 22.3149 41.3494 22.7511 40.7192 23.0689C40.0836 23.384 39.3188 23.5429 38.4193 23.5429C37.272 23.5429 36.3295 23.2736 35.5889 22.7404C34.8429 22.2044 34.2989 21.4612 33.9434 20.5105C33.5879 19.5599 33.4129 18.5042 33.4129 17.3354C33.4129 16.1666 33.596 15.0382 33.9623 14.1037C34.3285 13.1692 34.8833 12.4313 35.6239 11.8927C36.3699 11.3594 37.2855 11.0901 38.3843 11.0901C39.6985 11.0901 40.7246 11.4375 41.4517 12.1297C42.1815 12.8218 42.6097 13.6701 42.7309 14.6692H47.7023C47.6054 13.0857 47.1475 11.6988 46.3342 10.5057C45.5182 9.31271 44.4275 8.38091 43.0621 7.71034C41.6995 7.03976 40.1375 6.70312 38.3843 6.70312C36.728 6.70312 35.2738 6.99128 34.0188 7.56222C32.7638 8.13584 31.7189 8.90336 30.876 9.8621C30.0358 10.8262 29.4029 11.9196 28.9774 13.153C28.5519 14.3838 28.3364 15.6684 28.3364 17.0068V17.7016C28.3364 18.9674 28.5411 20.2116 28.9558 21.4288C29.3679 22.6488 29.99 23.7503 30.8194 24.7359C31.6462 25.7216 32.6938 26.5026 33.9623 27.0762C35.2307 27.6498 36.7146 27.9353 38.4193 27.9353C40.124 27.9353 41.7749 27.5933 43.1537 26.9146C44.5299 26.2306 45.6367 25.288 46.4797 24.0842C47.3226 22.8804 47.7885 21.4719 47.8881 19.8669H42.9167C42.844 20.5725 42.6178 21.208 42.2435 21.7655L42.2354 21.7547Z" fill="white"/>
<path d="M57.6237 1.80688H52.8355V7.3977H49.6926V11.1249H52.8355V19.7831C52.8355 21.7087 53.1209 23.2384 53.6945 24.3668C54.2682 25.5005 55.1434 26.3031 56.3257 26.7797C57.5079 27.2564 59.0241 27.4934 60.877 27.4934H63.7262V23.1468H60.6184C59.6435 23.1468 58.8949 22.8856 58.3724 22.3604C57.85 21.838 57.5887 21.0893 57.5887 20.1144L57.6076 11.1249H63.7289V7.3977H57.6157L57.6264 1.80688H57.621H57.6237Z" fill="white"/>
<path d="M84.3389 9.79183C83.399 8.82771 82.2598 8.07634 80.9241 7.52695C79.5829 6.97757 78.0748 6.70557 76.3943 6.70557C74.7138 6.70557 73.1976 6.97757 71.8457 7.52695C70.4938 8.07634 69.3492 8.82771 68.412 9.79183C67.4722 10.7559 66.7639 11.8493 66.2764 13.0801C65.789 14.3135 65.5466 15.6062 65.5466 16.9716V17.7391C65.5466 19.0802 65.7836 20.3594 66.2603 21.574C66.7343 22.794 67.4345 23.8739 68.3609 24.8246C69.2846 25.7752 70.4211 26.5293 71.7595 27.0894C73.1007 27.6496 74.6438 27.9297 76.3997 27.9297C78.1556 27.9297 79.661 27.6496 81.0049 27.0894C82.346 26.5293 83.4771 25.7752 84.4035 24.8246C85.3273 23.8739 86.0274 22.7886 86.5041 21.574C86.9808 20.3594 87.2178 19.0775 87.2178 17.7391V16.9716C87.2178 15.6062 86.9727 14.3081 86.488 13.0801C86.0005 11.852 85.2868 10.7533 84.3523 9.79183H84.3389ZM81.4546 20.5318C81.0022 21.4717 80.3505 22.2123 79.4994 22.7617C78.6457 23.3111 77.6116 23.5831 76.3916 23.5831C75.1717 23.5831 74.1025 23.3111 73.2488 22.7617C72.3951 22.2123 71.7434 21.4717 71.2936 20.5318C70.8412 19.5973 70.6204 18.5282 70.6204 17.3378C70.6204 16.1475 70.852 15.0729 71.3125 14.1223C71.7757 13.1716 72.4382 12.423 73.3054 11.8763C74.1698 11.3269 75.2013 11.0549 76.3943 11.0549C77.5874 11.0549 78.608 11.3269 79.4617 11.8763C80.3154 12.4257 80.9699 13.1743 81.4358 14.1223C81.899 15.0729 82.1279 16.1448 82.1279 17.3378C82.1279 18.5308 81.9016 19.5973 81.4546 20.5318Z" fill="white"/>
<path d="M22.1881 5.51541C23.1846 5.51541 23.9198 5.25957 24.3803 4.74789C24.8435 4.2362 25.0751 3.56563 25.0751 2.74155C25.0751 1.91747 24.8462 1.27921 24.3803 0.767527C23.9171 0.255844 23.1872 0 22.1881 0C21.189 0 20.4538 0.255844 19.9771 0.767527C19.5004 1.27921 19.2634 1.93632 19.2634 2.74155C19.2634 3.54678 19.5004 4.2389 19.9771 4.74789C20.4511 5.25957 21.189 5.51541 22.1881 5.51541Z" fill="white"/>
<path d="M19.6299 11.6743V27.4934H24.7063V11.6743V7.87707V7.39771H19.6299V11.6743Z" fill="white"/>
<path d="M130 13.9393L106.519 0.382324L116.098 13.9393L106.519 27.4935L130 13.9393Z" fill="#00F187"/>
</svg>
